<svg width="43" height="43" viewBox="0 0 43 43" fill="none" xmlns="http://www.w3.org/2000/svg">
<circle cx="21.7082" cy="21.1955" r="20.9553" fill="#2E3649"/>
<path d="M23.5004 11C19.2248 11 15 13.7407 15 18.1765C15 20.9974 16.6501 22.6002 17.6501 22.6002C18.0628 22.6002 18.3001 21.4942 18.3001 21.182C18.3001 20.8095 17.3128 20.0159 17.3128 18.465C17.3128 15.2435 19.8629 12.9592 23.163 12.9592C26.0005 12.9592 28.1005 14.51 28.1005 17.3591C28.1005 19.4869 27.2132 23.4778 24.3377 23.4778C23.3003 23.4778 22.4123 22.7566 22.4123 21.7231C22.4123 20.2082 23.5124 18.742 23.5124 17.179C23.5124 14.5267 19.5995 15.0075 19.5995 18.2131C19.5995 18.8862 19.6869 19.6312 19.9995 20.2447C19.4242 22.6252 18.2495 26.1711 18.2495 28.6233C18.2495 29.3805 18.3621 30.1261 18.4368 30.8832C18.5781 31.0358 18.5075 31.0198 18.7242 30.9435C20.8242 28.1784 20.7496 27.638 21.6996 24.0196C22.2123 24.9575 23.537 25.462 24.5871 25.462C29.0119 25.462 31 21.3147 31 17.5765C31 13.5978 27.4245 11.0013 23.4997 11.0013L23.5004 11Z" fill="white"/>
</svg>
