<svg width="42" height="43" viewBox="0 0 42 43" fill="none" xmlns="http://www.w3.org/2000/svg">
<circle cx="20.9553" cy="21.196" r="20.9553" fill="#C0B0A3"/>
<path d="M20.5431 19.1918C22.1312 19.1918 23.4272 20.4878 23.4272 22.0759C23.4272 23.664 22.1312 24.96 20.5431 24.96C18.9551 24.96 17.6591 23.664 17.6591 22.0759C17.6591 20.4878 18.9551 19.1918 20.5431 19.1918ZM11.8931 22.0759C11.8931 20.8816 11.8823 19.6981 11.9494 18.5059C12.0164 17.1212 12.3323 15.8923 13.3449 14.8797C14.3596 13.8649 15.5864 13.5512 16.9711 13.4841C18.1654 13.4171 19.3488 13.4279 20.541 13.4279C21.7353 13.4279 22.9187 13.4171 24.1109 13.4841C25.4956 13.5512 26.7245 13.8671 27.737 14.8797C28.7518 15.8944 29.0655 17.1212 29.1326 18.5059C29.1996 19.7002 29.1888 20.8837 29.1888 22.0759C29.1888 23.268 29.1996 24.4537 29.1326 25.6459C29.0655 27.0306 28.7496 28.2595 27.737 29.2721C26.7223 30.2868 25.4956 30.6006 24.1109 30.6676C22.9166 30.7347 21.7331 30.7239 20.541 30.7239C19.3467 30.7239 18.1632 30.7347 16.9711 30.6676C15.5864 30.6006 14.3574 30.2847 13.3449 29.2721C12.3302 28.2574 12.0164 27.0306 11.9494 25.6459C11.8801 24.4537 11.8931 23.2702 11.8931 22.0759ZM20.5431 26.5135C22.9988 26.5135 24.9806 24.5316 24.9806 22.0759C24.9806 19.6202 22.9988 17.6383 20.5431 17.6383C18.0875 17.6383 16.1056 19.6202 16.1056 22.0759C16.1056 24.5316 18.0875 26.5135 20.5431 26.5135ZM15.9239 18.4929C16.4972 18.4929 16.9602 18.0299 16.9602 17.4566C16.9602 16.8832 16.4972 16.4202 15.9239 16.4202C15.3505 16.4202 14.8875 16.8832 14.8875 17.4566C14.8874 17.5927 14.914 17.7275 14.9661 17.8534C15.0181 17.9792 15.0944 18.0935 15.1907 18.1898C15.287 18.286 15.4013 18.3624 15.5271 18.4144C15.6529 18.4664 15.7877 18.4931 15.9239 18.4929Z" fill="#121827"/>
</svg>
