<svg width="42" height="43" viewBox="0 0 42 43" fill="none" xmlns="http://www.w3.org/2000/svg">
<circle cx="20.9553" cy="21.1955" r="20.9553" fill="#2E3649"/>
<path d="M20.5431 19.1913C22.1312 19.1913 23.4272 20.4873 23.4272 22.0754C23.4272 23.6635 22.1312 24.9595 20.5431 24.9595C18.9551 24.9595 17.6591 23.6635 17.6591 22.0754C17.6591 20.4873 18.9551 19.1913 20.5431 19.1913ZM11.8931 22.0754C11.8931 20.8811 11.8823 19.6976 11.9494 18.5054C12.0164 17.1207 12.3323 15.8918 13.3449 14.8792C14.3596 13.8645 15.5864 13.5507 16.9711 13.4837C18.1654 13.4166 19.3488 13.4274 20.541 13.4274C21.7353 13.4274 22.9187 13.4166 24.1109 13.4837C25.4956 13.5507 26.7245 13.8666 27.737 14.8792C28.7518 15.8939 29.0655 17.1207 29.1326 18.5054C29.1996 19.6997 29.1888 20.8832 29.1888 22.0754C29.1888 23.2676 29.1996 24.4532 29.1326 25.6454C29.0655 27.0301 28.7496 28.259 27.737 29.2716C26.7223 30.2864 25.4956 30.6001 24.1109 30.6672C22.9166 30.7342 21.7331 30.7234 20.541 30.7234C19.3467 30.7234 18.1632 30.7342 16.9711 30.6672C15.5864 30.6001 14.3574 30.2842 13.3449 29.2716C12.3302 28.2569 12.0164 27.0301 11.9494 25.6454C11.8801 24.4532 11.8931 23.2697 11.8931 22.0754ZM20.5431 26.513C22.9988 26.513 24.9806 24.5311 24.9806 22.0754C24.9806 19.6197 22.9988 17.6378 20.5431 17.6378C18.0875 17.6378 16.1056 19.6197 16.1056 22.0754C16.1056 24.5311 18.0875 26.513 20.5431 26.513ZM15.9239 18.4924C16.4972 18.4924 16.9602 18.0294 16.9602 17.4561C16.9602 16.8827 16.4972 16.4197 15.9239 16.4197C15.3505 16.4197 14.8875 16.8827 14.8875 17.4561C14.8874 17.5922 14.914 17.7271 14.9661 17.8529C15.0181 17.9787 15.0944 18.093 15.1907 18.1893C15.287 18.2855 15.4013 18.3619 15.5271 18.4139C15.6529 18.4659 15.7877 18.4926 15.9239 18.4924Z" fill="white"/>
</svg>
