<svg width="42" height="43" viewBox="0 0 42 43" fill="none" xmlns="http://www.w3.org/2000/svg">
<circle cx="21.0446" cy="21.1955" r="20.9553" fill="#2E3649"/>
<path d="M30.7823 16.7032C30.6716 16.2781 30.4544 15.8904 30.1525 15.579C29.8506 15.2675 29.4747 15.0432 29.0623 14.9285C27.5442 14.5078 21.4587 14.5078 21.4587 14.5078C21.4587 14.5078 15.3733 14.5078 13.8552 14.9263C13.4426 15.0406 13.0665 15.2648 12.7645 15.5763C12.4626 15.8878 12.2455 16.2757 12.1351 16.701C11.729 18.2675 11.729 21.5348 11.729 21.5348C11.729 21.5348 11.729 24.8022 12.1351 26.3665C12.3588 27.2303 13.0191 27.9106 13.8552 28.1411C15.3733 28.5619 21.4587 28.5619 21.4587 28.5619C21.4587 28.5619 27.5442 28.5619 29.0623 28.1411C29.9006 27.9106 30.5586 27.2303 30.7823 26.3665C31.1885 24.8022 31.1885 21.5348 31.1885 21.5348C31.1885 21.5348 31.1885 18.2675 30.7823 16.7032ZM19.5258 24.5336V18.536L24.5644 21.5125L19.5258 24.5336Z" fill="white"/>
</svg>
