<svg width="212" height="39" viewBox="0 0 212 39" fill="none" xmlns="http://www.w3.org/2000/svg">
<path fill-rule="evenodd" clip-rule="evenodd" d="M41.3442 38.9428V8.52051H51.4659V18.8138H60.9586V8.52051H71.0231V38.9428H60.9586V27.1627H51.4659V38.9428H41.3442Z" fill="#F7F0EB"/>
<path fill-rule="evenodd" clip-rule="evenodd" d="M84.3471 38.9428L85.4908 34.9399H95.5553L96.7562 38.9428H106.763L95.7268 8.52051H85.4908L74.4541 38.9428H84.3471ZM93.7825 28.5924H87.435L90.523 17.6701L93.7825 28.5924Z" fill="#F7F0EB"/>
<path fill-rule="evenodd" clip-rule="evenodd" d="M130.553 25.1041L130.21 18.1847V8.52051H139.817V38.9428H130.381L119.402 22.3592L119.802 29.3358V38.9428H110.138V8.52051H119.573L130.553 25.1041Z" fill="#F7F0EB"/>
<path fill-rule="evenodd" clip-rule="evenodd" d="M162.576 28.5924H156.229L159.316 17.6701L162.576 28.5924ZM153.141 38.9428L154.284 34.9399H164.349L165.55 38.9428H175.557L164.52 8.52051H154.284L143.248 38.9428H153.141Z" fill="#F7F0EB"/>
<path fill-rule="evenodd" clip-rule="evenodd" d="M155.656 5.48973H161.546L168.866 0H159.945L155.656 5.48973Z" fill="#F7F0EB"/>
<path fill-rule="evenodd" clip-rule="evenodd" d="M179.617 8.52051H189.682V18.3563L198.545 8.52051H210.383L199.117 19.9575L211.583 38.9428H199.46L192.083 26.8196L189.682 29.3358V38.9428H179.617V8.52051Z" fill="#F7F0EB"/>
<path fill-rule="evenodd" clip-rule="evenodd" d="M2.05865 38.9428C2.05865 23.2742 14.7537 10.6363 30.4223 10.5792V8.52051H0V38.9428H2.05865Z" fill="#F7F0EB"/>
<path fill-rule="evenodd" clip-rule="evenodd" d="M30.4795 38.9428V32.1378H30.4223C26.5909 32.1378 23.5601 35.1686 23.5029 38.9428H30.4795Z" fill="#F7F0EB"/>
<path fill-rule="evenodd" clip-rule="evenodd" d="M19.8429 38.9428C19.8429 33.11 24.5892 28.3636 30.4221 28.3636V27.2199C23.9602 27.2199 18.6992 32.4809 18.6992 38.9428H19.8429Z" fill="#F7F0EB"/>
<path fill-rule="evenodd" clip-rule="evenodd" d="M15.611 38.9428C15.6682 30.7654 22.3016 24.1892 30.4218 24.132V22.9883C21.6154 22.9883 14.4673 30.1364 14.4673 38.9428H15.611Z" fill="#F7F0EB"/>
<path fill-rule="evenodd" clip-rule="evenodd" d="M11.2653 38.9428C11.3225 28.4208 19.9002 19.8431 30.4222 19.8431V18.6994C19.2711 18.6994 10.1788 27.7918 10.1216 38.9428H11.2653Z" fill="#F7F0EB"/>
<path fill-rule="evenodd" clip-rule="evenodd" d="M6.9767 38.9428C7.03389 26.0191 17.4987 15.5543 30.4224 15.5543V14.4106C16.8697 14.4106 5.83301 25.4472 5.83301 39L6.9767 38.9428Z" fill="#F7F0EB"/>
</svg>
