<svg width="139" height="26" viewBox="0 0 139 26" fill="none" xmlns="http://www.w3.org/2000/svg">
<path fill-rule="evenodd" clip-rule="evenodd" d="M27.0635 25.4902V5.57617H33.689V12.314H39.9028V5.57617H46.4909V25.4902H39.9028V17.7791H33.689V25.4902H27.0635Z" fill="#2E3649"/>
<path fill-rule="evenodd" clip-rule="evenodd" d="M55.2126 25.4902L55.9613 22.87H62.5494L63.3355 25.4902H69.8861L62.6617 5.57617H55.9613L48.7368 25.4902H55.2126ZM61.389 18.715H57.234L59.2553 11.5654L61.389 18.715Z" fill="#2E3649"/>
<path fill-rule="evenodd" clip-rule="evenodd" d="M85.4581 16.4316L85.2335 11.9023V5.57617H91.5222V25.4902H85.3458L78.1588 14.6348L78.4208 19.2016V25.4902H72.0947V5.57617H78.2711L85.4581 16.4316Z" fill="#2E3649"/>
<path fill-rule="evenodd" clip-rule="evenodd" d="M106.42 18.715H102.265L104.287 11.5654L106.42 18.715ZM100.244 25.4902L100.993 22.87H107.581L108.367 25.4902H114.917L107.693 5.57617H100.993L93.7681 25.4902H100.244Z" fill="#2E3649"/>
<path fill-rule="evenodd" clip-rule="evenodd" d="M101.891 3.59253H105.746L110.538 -0.000976562H104.698L101.891 3.59253Z" fill="#2E3649"/>
<path fill-rule="evenodd" clip-rule="evenodd" d="M117.575 5.57617H124.163V12.0145L129.965 5.57617H137.714L130.34 13.0627L138.5 25.4902H130.564L125.735 17.5546L124.163 19.2016V25.4902H117.575V5.57617Z" fill="#2E3649"/>
<path fill-rule="evenodd" clip-rule="evenodd" d="M1.34757 25.4902C1.34757 15.2337 9.65757 6.96117 19.9141 6.92374V5.57617H0V25.4902H1.34757Z" fill="#2E3649"/>
<path fill-rule="evenodd" clip-rule="evenodd" d="M19.9515 25.4906V21.0361H19.9141C17.4061 21.0361 15.4222 23.02 15.3848 25.4906H19.9515Z" fill="#2E3649"/>
<path fill-rule="evenodd" clip-rule="evenodd" d="M12.9889 25.4901C12.9889 21.6719 16.0958 18.5651 19.9139 18.5651V17.8164C15.684 17.8164 12.2402 21.2602 12.2402 25.4901H12.9889Z" fill="#2E3649"/>
<path fill-rule="evenodd" clip-rule="evenodd" d="M10.2189 25.4905C10.2563 20.1377 14.5985 15.833 19.9139 15.7955V15.0469C14.1493 15.0469 9.47021 19.7259 9.47021 25.4905H10.2189Z" fill="#2E3649"/>
<path fill-rule="evenodd" clip-rule="evenodd" d="M7.37414 25.4913C7.41157 18.6037 13.0264 12.9889 19.914 12.9889V12.2402C12.6147 12.2402 6.66292 18.192 6.62549 25.4913H7.37414Z" fill="#2E3649"/>
<path fill-rule="evenodd" clip-rule="evenodd" d="M4.56701 25.4902C4.60444 17.0304 11.4546 10.1803 19.9143 10.1803V9.43164C11.0428 9.43164 3.81836 16.6561 3.81836 25.5276L4.56701 25.4902Z" fill="#2E3649"/>
</svg>
