<svg width="139" height="26" viewBox="0 0 139 26" fill="none" xmlns="http://www.w3.org/2000/svg">
<path fill-rule="evenodd" clip-rule="evenodd" d="M27.0635 25.4915V5.57742H33.689V12.3153H39.9028V5.57742H46.4909V25.4915H39.9028V17.7804H33.689V25.4915H27.0635Z" fill="#F7F0EB"/>
<path fill-rule="evenodd" clip-rule="evenodd" d="M55.2126 25.4915L55.9613 22.8712H62.5494L63.3355 25.4915H69.8861L62.6617 5.57742H55.9613L48.7368 25.4915H55.2126ZM61.389 18.7162H57.234L59.2553 11.5666L61.389 18.7162Z" fill="#F7F0EB"/>
<path fill-rule="evenodd" clip-rule="evenodd" d="M85.4581 16.4328L85.2335 11.9035V5.57742H91.5222V25.4915H85.3458L78.1588 14.6361L78.4208 19.2028V25.4915H72.0947V5.57742H78.2711L85.4581 16.4328Z" fill="#F7F0EB"/>
<path fill-rule="evenodd" clip-rule="evenodd" d="M106.42 18.7162H102.265L104.287 11.5666L106.42 18.7162ZM100.244 25.4915L100.993 22.8712H107.581L108.367 25.4915H114.917L107.693 5.57742H100.993L93.7681 25.4915H100.244Z" fill="#F7F0EB"/>
<path fill-rule="evenodd" clip-rule="evenodd" d="M101.891 3.59351H105.746L110.538 0H104.698L101.891 3.59351Z" fill="#F7F0EB"/>
<path fill-rule="evenodd" clip-rule="evenodd" d="M117.575 5.57742H124.163V12.0158L129.965 5.57742H137.714L130.34 13.0639L138.5 25.4915H130.564L125.735 17.5558L124.163 19.2028V25.4915H117.575V5.57742Z" fill="#F7F0EB"/>
<path fill-rule="evenodd" clip-rule="evenodd" d="M1.34757 25.4915C1.34757 15.235 9.65757 6.96243 19.9141 6.92499V5.57742H0V25.4915H1.34757Z" fill="#F7F0EB"/>
<path fill-rule="evenodd" clip-rule="evenodd" d="M19.9515 25.4915V21.037H19.9141C17.4061 21.037 15.4222 23.021 15.3848 25.4915H19.9515Z" fill="#F7F0EB"/>
<path fill-rule="evenodd" clip-rule="evenodd" d="M12.9889 25.4915C12.9889 21.6734 16.0958 18.5665 19.9139 18.5665V17.8178C15.684 17.8178 12.2402 21.2616 12.2402 25.4915H12.9889Z" fill="#F7F0EB"/>
<path fill-rule="evenodd" clip-rule="evenodd" d="M10.2189 25.4915C10.2563 20.1387 14.5985 15.8339 19.9139 15.7965V15.0479C14.1493 15.0479 9.47021 19.7269 9.47021 25.4915H10.2189Z" fill="#F7F0EB"/>
<path fill-rule="evenodd" clip-rule="evenodd" d="M7.37414 25.4915C7.41157 18.6039 13.0264 12.9891 19.914 12.9891V12.2404C12.6147 12.2404 6.66292 18.1922 6.62549 25.4915H7.37414Z" fill="#F7F0EB"/>
<path fill-rule="evenodd" clip-rule="evenodd" d="M4.56701 25.4915C4.60444 17.0318 11.4546 10.1816 19.9143 10.1816V9.43298C11.0428 9.43298 3.81836 16.6574 3.81836 25.5289L4.56701 25.4915Z" fill="#F7F0EB"/>
</svg>
